<?xml version="1.0" standalone="no"?>
<!DOCTYPE svg PUBLIC "-//W3C//DTD SVG 20010904//EN"
 "http://www.w3.org/TR/2001/REC-SVG-20010904/DTD/svg10.dtd">
<svg version="1.0" xmlns="http://www.w3.org/2000/svg"
 width="700.000000pt" height="700.000000pt" viewBox="0 0 700.000000 700.000000"
 preserveAspectRatio="xMidYMid meet">
<metadata>
Created by potrace 1.14, written by Peter Selinger 2001-2017
</metadata>
<g transform="translate(0.000000,700.000000) scale(0.100000,-0.100000)"
fill="#000000" stroke="none">
<path d="M3280 6994 c-19 -2 -84 -9 -145 -14 -578 -56 -1180 -283 -1660 -625
-237 -169 -531 -446 -709 -670 -417 -522 -666 -1129 -748 -1820 -17 -145 -17
-576 0 -730 75 -673 332 -1299 748 -1820 116 -146 355 -388 501 -508 539 -445
1154 -705 1868 -789 145 -17 576 -17 730 0 664 74 1259 315 1795 728 148 114
479 445 594 594 362 467 599 1004 695 1570 36 214 46 332 46 590 0 258 -10
376 -46 590 -96 566 -334 1104 -695 1570 -115 149 -446 481 -594 595 -522 402
-1102 641 -1750 721 -117 15 -553 27 -630 18z m1221 -1601 c78 -137 144 -252
146 -256 3 -4 -61 -122 -142 -262 l-147 -255 -300 2 -301 3 -144 248 c-78 136
-143 252 -143 258 0 7 227 407 276 487 l14 22 299 0 299 0 143 -247z m-1181
-595 c63 -111 129 -227 147 -257 l31 -56 -147 -255 -147 -255 -298 0 -299 0
-148 255 c-119 205 -145 258 -138 273 17 30 260 450 275 475 l14 22 298 0 297
-1 115 -201z m1180 -695 c79 -137 145 -251 147 -256 3 -4 -62 -122 -142 -262
l-147 -255 -301 2 -300 3 -143 248 c-79 137 -144 253 -144 258 0 9 63 119 237
417 l54 92 298 0 299 0 142 -247z m-1180 -595 c63 -110 129 -226 147 -257 l31
-56 -147 -255 -147 -255 -299 0 -298 0 -147 255 c-82 140 -147 257 -145 260
16 32 280 488 288 498 7 9 80 12 306 12 l296 -1 115 -201z m0 -1290 c63 -111
129 -227 147 -257 l31 -56 -147 -255 -147 -255 -298 0 -299 0 -148 255 c-81
140 -146 257 -144 260 27 50 281 489 288 498 7 9 80 12 306 12 l296 -1 115
-201z"/>
</g>
</svg>
