<svg width="90" height="90" xmlns="http://www.w3.org/2000/svg">
 <g id="Layer_1">
  <title>Layer 1</title>
  <rect id="svg_1" height="122" width="130" y="-4" x="-1" stroke="#f47e3d" fill="#f47e3d"/>
  <rect id="svg_2" height="8" width="24" y="113" x="101" stroke="#f47e3d" fill="#f47e3d"/>
  <rect id="svg_3" height="0" width="1" y="121" x="136" stroke="#f47e3d" fill="#f47e3d"/>
  <path id="svg_4" d="m-5,-1l97,0l0,89.99999l-97,0l0,-89.99999z" opacity="undefined" stroke="#f47e3d" fill="#f47e3d"/>
  <g>
   <g id="svg_5">
    <title>Layer 1</title>
    <rect fill="#f47e3d" x="0.5" y="1.5" width="88.99999" height="87" id="svg_6" stroke="#f47e3d"/>
    <g>
     <g fill="none" fill-rule="evenodd">
      <path stroke="#2E2E41" stroke-width="2" d="m55.4455,60.654l3.686,1.562l1.883,-3.3l-7.917,-22.82"/>
      <path fill="#FFF" d="m38.7435,17.05c-1.763,1.309 0.477,5.789 1.88,8.212a28.608,28.608 0 0 1 8.467,-0.078c1.405,-2.44 3.58,-6.84 1.832,-8.134c0,0 -5.158,-3.573 -12.179,0"/>
      <path stroke="#2E2E41" stroke-width="2" d="m38.7435,17.05c-1.763,1.309 0.477,5.789 1.88,8.212a28.608,28.608 0 0 1 8.467,-0.078c1.405,-2.44 3.58,-6.84 1.832,-8.134c0,0 -5.158,-3.573 -12.179,0z"/>
      <path fill="#FFF" d="m41.5385,29.381l-3.553,37.135l7.065,7.022l6.63,-7.022l-3.56,-37.206"/>
      <path stroke="#2E2E41" stroke-width="2" d="m41.5385,29.381l-3.553,37.135l7.065,7.022l6.63,-7.022l-3.56,-37.206"/>
     </g>
    </g>
   </g>
  </g>
 </g>

</svg>